<svg xmlns="http://www.w3.org/2000/svg" viewBox="0 0 800 450" width="800" height="450" role="img" aria-label=""><defs><linearGradient id="bg" x1="0" y1="0" x2="1" y2="1"><stop offset="0" stop-color="#472037"/><stop offset="1" stop-color="#1a0c14"/></linearGradient><radialGradient id="glow" cx="0.500" cy="0.556" r="68%"><stop offset="0" stop-color="#ff9ed7" stop-opacity=".34"/><stop offset="1" stop-color="#1a0c14" stop-opacity="0"/></radialGradient><radialGradient id="vig" cx="50%" cy="50%" r="76%"><stop offset="55%" stop-color="#000" stop-opacity="0"/><stop offset="100%" stop-color="#000" stop-opacity=".48"/></radialGradient></defs><rect width="800" height="450" fill="#1a0c14"/><rect width="800" height="450" fill="url(#bg)"/><g stroke="#fff" stroke-opacity=".035" fill="none"><path d="M0 0V450"/><path d="M50 0V450"/><path d="M100 0V450"/><path d="M150 0V450"/><path d="M200 0V450"/><path d="M250 0V450"/><path d="M300 0V450"/><path d="M350 0V450"/><path d="M400 0V450"/><path d="M450 0V450"/><path d="M500 0V450"/><path d="M550 0V450"/><path d="M600 0V450"/><path d="M650 0V450"/><path d="M700 0V450"/><path d="M750 0V450"/><path d="M800 0V450"/><path d="M0 0H800"/><path d="M0 50H800"/><path d="M0 100H800"/><path d="M0 150H800"/><path d="M0 200H800"/><path d="M0 250H800"/><path d="M0 300H800"/><path d="M0 350H800"/><path d="M0 400H800"/><path d="M0 450H800"/></g><rect width="800" height="450" fill="url(#glow)"/><path d="M400 129 l42 21 l-42 21 l-42 -21 Z" fill="#FF74C6" fill-opacity="0.070" stroke="#FF74C6" stroke-opacity=".26" stroke-width="1"/><path d="M358 150 l42 21 l-42 21 l-42 -21 Z" fill="#FF74C6" fill-opacity="0.070" stroke="#FF74C6" stroke-opacity=".26" stroke-width="1"/><path d="M442 130 l42 21 l-42 21 l-42 -21 Z" fill="#FF74C6" fill-opacity="0.220" stroke="#FF74C6" stroke-opacity=".26" stroke-width="1"/><path d="M400 151 l0 20 l42 21 l0 -20 Z" fill="#FF74C6" fill-opacity="0.121"/><path d="M484 151 l0 20 l-42 21 l0 -20 Z" fill="#FF74C6" fill-opacity="0.070"/><path d="M316 166 l42 21 l-42 21 l-42 -21 Z" fill="#FF74C6" fill-opacity="0.108" stroke="#FF74C6" stroke-opacity=".26" stroke-width="1"/><path d="M274 187 l0 5 l42 21 l0 -5 Z" fill="#FF74C6" fill-opacity="0.059"/><path d="M358 187 l0 5 l-42 21 l0 -5 Z" fill="#FF74C6" fill-opacity="0.034"/><path d="M400 171 l42 21 l-42 21 l-42 -21 Z" fill="#FF74C6" fill-opacity="0.070" stroke="#FF74C6" stroke-opacity=".26" stroke-width="1"/><path d="M484 171 l42 21 l-42 21 l-42 -21 Z" fill="#FF74C6" fill-opacity="0.070" stroke="#FF74C6" stroke-opacity=".26" stroke-width="1"/><path d="M274 177 l42 21 l-42 21 l-42 -21 Z" fill="#FF74C6" fill-opacity="0.182" stroke="#FF74C6" stroke-opacity=".26" stroke-width="1"/><path d="M232 198 l0 15 l42 21 l0 -15 Z" fill="#FF74C6" fill-opacity="0.100"/><path d="M316 198 l0 15 l-42 21 l0 -15 Z" fill="#FF74C6" fill-opacity="0.058"/><path d="M358 177 l42 21 l-42 21 l-42 -21 Z" fill="#FF74C6" fill-opacity="0.182" stroke="#FF74C6" stroke-opacity=".26" stroke-width="1"/><path d="M316 198 l0 15 l42 21 l0 -15 Z" fill="#FF74C6" fill-opacity="0.100"/><path d="M400 198 l0 15 l-42 21 l0 -15 Z" fill="#FF74C6" fill-opacity="0.058"/><path d="M442 192 l42 21 l-42 21 l-42 -21 Z" fill="#FF74C6" fill-opacity="0.070" stroke="#FF74C6" stroke-opacity=".26" stroke-width="1"/><path d="M526 157 l42 21 l-42 21 l-42 -21 Z" fill="#FF74C6" fill-opacity="0.333" stroke="#FF74C6" stroke-opacity=".26" stroke-width="1"/><path d="M484 178 l0 35 l42 21 l0 -35 Z" fill="#FF74C6" fill-opacity="0.183"/><path d="M568 178 l0 35 l-42 21 l0 -35 Z" fill="#FF74C6" fill-opacity="0.106"/><path d="M232 188 l42 21 l-42 21 l-42 -21 Z" fill="#FF74C6" fill-opacity="0.258" stroke="#FF74C6" stroke-opacity=".26" stroke-width="1"/><path d="M190 209 l0 25 l42 21 l0 -25 Z" fill="#FF74C6" fill-opacity="0.142"/><path d="M274 209 l0 25 l-42 21 l0 -25 Z" fill="#FF74C6" fill-opacity="0.082"/><path d="M316 213 l42 21 l-42 21 l-42 -21 Z" fill="#FF74C6" fill-opacity="0.070" stroke="#FF74C6" stroke-opacity=".26" stroke-width="1"/><path d="M400 188 l42 21 l-42 21 l-42 -21 Z" fill="#FF74C6" fill-opacity="0.258" stroke="#FF74C6" stroke-opacity=".26" stroke-width="1"/><path d="M358 209 l0 25 l42 21 l0 -25 Z" fill="#FF74C6" fill-opacity="0.142"/><path d="M442 209 l0 25 l-42 21 l0 -25 Z" fill="#FF74C6" fill-opacity="0.082"/><path d="M484 178 l42 21 l-42 21 l-42 -21 Z" fill="#FF74C6" fill-opacity="0.333" stroke="#FF74C6" stroke-opacity=".26" stroke-width="1"/><path d="M442 199 l0 35 l42 21 l0 -35 Z" fill="#FF74C6" fill-opacity="0.183"/><path d="M526 199 l0 35 l-42 21 l0 -35 Z" fill="#FF74C6" fill-opacity="0.106"/><path d="M568 198 l42 21 l-42 21 l-42 -21 Z" fill="#FF74C6" fill-opacity="0.182" stroke="#FF74C6" stroke-opacity=".26" stroke-width="1"/><path d="M526 219 l0 15 l42 21 l0 -15 Z" fill="#FF74C6" fill-opacity="0.100"/><path d="M610 219 l0 15 l-42 21 l0 -15 Z" fill="#FF74C6" fill-opacity="0.058"/><path d="M190 199 l42 21 l-42 21 l-42 -21 Z" fill="#FF74C6" fill-opacity="0.333" stroke="#FF74C6" stroke-opacity=".26" stroke-width="1"/><path d="M148 220 l0 35 l42 21 l0 -35 Z" fill="#FF74C6" fill-opacity="0.183"/><path d="M232 220 l0 35 l-42 21 l0 -35 Z" fill="#FF74C6" fill-opacity="0.106"/><path d="M274 224 l42 21 l-42 21 l-42 -21 Z" fill="#FF74C6" fill-opacity="0.145" stroke="#FF74C6" stroke-opacity=".26" stroke-width="1"/><path d="M232 245 l0 10 l42 21 l0 -10 Z" fill="#FF74C6" fill-opacity="0.080"/><path d="M316 245 l0 10 l-42 21 l0 -10 Z" fill="#FF74C6" fill-opacity="0.046"/><path d="M358 224 l42 21 l-42 21 l-42 -21 Z" fill="#FF74C6" fill-opacity="0.145" stroke="#FF74C6" stroke-opacity=".26" stroke-width="1"/><path d="M316 245 l0 10 l42 21 l0 -10 Z" fill="#FF74C6" fill-opacity="0.080"/><path d="M400 245 l0 10 l-42 21 l0 -10 Z" fill="#FF74C6" fill-opacity="0.046"/><path d="M442 199 l42 21 l-42 21 l-42 -21 Z" fill="#FF74C6" fill-opacity="0.333" stroke="#FF74C6" stroke-opacity=".26" stroke-width="1"/><path d="M400 220 l0 35 l42 21 l0 -35 Z" fill="#FF74C6" fill-opacity="0.183"/><path d="M484 220 l0 35 l-42 21 l0 -35 Z" fill="#FF74C6" fill-opacity="0.106"/><path d="M526 204 l42 21 l-42 21 l-42 -21 Z" fill="#FF74C6" fill-opacity="0.295" stroke="#FF74C6" stroke-opacity=".26" stroke-width="1"/><path d="M484 225 l0 30 l42 21 l0 -30 Z" fill="#FF74C6" fill-opacity="0.162"/><path d="M568 225 l0 30 l-42 21 l0 -30 Z" fill="#FF74C6" fill-opacity="0.094"/><path d="M610 234 l42 21 l-42 21 l-42 -21 Z" fill="#FF74C6" fill-opacity="0.070" stroke="#FF74C6" stroke-opacity=".26" stroke-width="1"/><path d="M148 255 l42 21 l-42 21 l-42 -21 Z" fill="#FF74C6" fill-opacity="0.070" stroke="#FF74C6" stroke-opacity=".26" stroke-width="1"/><path d="M232 220 l42 21 l-42 21 l-42 -21 Z" fill="#FF74C6" fill-opacity="0.333" stroke="#FF74C6" stroke-opacity=".26" stroke-width="1"/><path d="M190 241 l0 35 l42 21 l0 -35 Z" fill="#FF74C6" fill-opacity="0.183"/><path d="M274 241 l0 35 l-42 21 l0 -35 Z" fill="#FF74C6" fill-opacity="0.106"/><path d="M316 255 l42 21 l-42 21 l-42 -21 Z" fill="#FF74C6" fill-opacity="0.070" stroke="#FF74C6" stroke-opacity=".26" stroke-width="1"/><path d="M400 220 l42 21 l-42 21 l-42 -21 Z" fill="#FF74C6" fill-opacity="0.333" stroke="#FF74C6" stroke-opacity=".26" stroke-width="1"/><path d="M358 241 l0 35 l42 21 l0 -35 Z" fill="#FF74C6" fill-opacity="0.183"/><path d="M442 241 l0 35 l-42 21 l0 -35 Z" fill="#FF74C6" fill-opacity="0.106"/><path d="M484 255 l42 21 l-42 21 l-42 -21 Z" fill="#FF74C6" fill-opacity="0.070" stroke="#FF74C6" stroke-opacity=".26" stroke-width="1"/><path d="M568 230 l42 21 l-42 21 l-42 -21 Z" fill="#FF74C6" fill-opacity="0.258" stroke="#FF74C6" stroke-opacity=".26" stroke-width="1"/><path d="M526 251 l0 25 l42 21 l0 -25 Z" fill="#FF74C6" fill-opacity="0.142"/><path d="M610 251 l0 25 l-42 21 l0 -25 Z" fill="#FF74C6" fill-opacity="0.082"/><path d="M652 225 l42 21 l-42 21 l-42 -21 Z" fill="#FF74C6" fill-opacity="0.295" stroke="#FF74C6" stroke-opacity=".26" stroke-width="1"/><path d="M610 246 l0 30 l42 21 l0 -30 Z" fill="#FF74C6" fill-opacity="0.162"/><path d="M694 246 l0 30 l-42 21 l0 -30 Z" fill="#FF74C6" fill-opacity="0.094"/><path d="M106 276 l42 21 l-42 21 l-42 -21 Z" fill="#FF74C6" fill-opacity="0.070" stroke="#FF74C6" stroke-opacity=".26" stroke-width="1"/><path d="M190 271 l42 21 l-42 21 l-42 -21 Z" fill="#FF74C6" fill-opacity="0.108" stroke="#FF74C6" stroke-opacity=".26" stroke-width="1"/><path d="M148 292 l0 5 l42 21 l0 -5 Z" fill="#FF74C6" fill-opacity="0.059"/><path d="M232 292 l0 5 l-42 21 l0 -5 Z" fill="#FF74C6" fill-opacity="0.034"/><path d="M274 241 l42 21 l-42 21 l-42 -21 Z" fill="#FF74C6" fill-opacity="0.333" stroke="#FF74C6" stroke-opacity=".26" stroke-width="1"/><path d="M232 262 l0 35 l42 21 l0 -35 Z" fill="#FF74C6" fill-opacity="0.183"/><path d="M316 262 l0 35 l-42 21 l0 -35 Z" fill="#FF74C6" fill-opacity="0.106"/><path d="M358 241 l42 21 l-42 21 l-42 -21 Z" fill="#FF74C6" fill-opacity="0.333" stroke="#FF74C6" stroke-opacity=".26" stroke-width="1"/><path d="M316 262 l0 35 l42 21 l0 -35 Z" fill="#FF74C6" fill-opacity="0.183"/><path d="M400 262 l0 35 l-42 21 l0 -35 Z" fill="#FF74C6" fill-opacity="0.106"/><path d="M442 271 l42 21 l-42 21 l-42 -21 Z" fill="#FF74C6" fill-opacity="0.108" stroke="#FF74C6" stroke-opacity=".26" stroke-width="1"/><path d="M400 292 l0 5 l42 21 l0 -5 Z" fill="#FF74C6" fill-opacity="0.059"/><path d="M484 292 l0 5 l-42 21 l0 -5 Z" fill="#FF74C6" fill-opacity="0.034"/><path d="M526 276 l42 21 l-42 21 l-42 -21 Z" fill="#FF74C6" fill-opacity="0.070" stroke="#FF74C6" stroke-opacity=".26" stroke-width="1"/><path d="M610 256 l42 21 l-42 21 l-42 -21 Z" fill="#FF74C6" fill-opacity="0.220" stroke="#FF74C6" stroke-opacity=".26" stroke-width="1"/><path d="M568 277 l0 20 l42 21 l0 -20 Z" fill="#FF74C6" fill-opacity="0.121"/><path d="M652 277 l0 20 l-42 21 l0 -20 Z" fill="#FF74C6" fill-opacity="0.070"/><path d="M694 266 l42 21 l-42 21 l-42 -21 Z" fill="#FF74C6" fill-opacity="0.145" stroke="#FF74C6" stroke-opacity=".26" stroke-width="1"/><path d="M652 287 l0 10 l42 21 l0 -10 Z" fill="#FF74C6" fill-opacity="0.080"/><path d="M736 287 l0 10 l-42 21 l0 -10 Z" fill="#FF74C6" fill-opacity="0.046"/><path d="M64 287 l42 21 l-42 21 l-42 -21 Z" fill="#FF74C6" fill-opacity="0.145" stroke="#FF74C6" stroke-opacity=".26" stroke-width="1"/><path d="M22 308 l0 10 l42 21 l0 -10 Z" fill="#FF74C6" fill-opacity="0.080"/><path d="M106 308 l0 10 l-42 21 l0 -10 Z" fill="#FF74C6" fill-opacity="0.046"/><path d="M148 267 l42 21 l-42 21 l-42 -21 Z" fill="#FF74C6" fill-opacity="0.295" stroke="#FF74C6" stroke-opacity=".26" stroke-width="1"/><path d="M106 288 l0 30 l42 21 l0 -30 Z" fill="#FF74C6" fill-opacity="0.162"/><path d="M190 288 l0 30 l-42 21 l0 -30 Z" fill="#FF74C6" fill-opacity="0.094"/><path d="M232 277 l42 21 l-42 21 l-42 -21 Z" fill="#FF74C6" fill-opacity="0.220" stroke="#FF74C6" stroke-opacity=".26" stroke-width="1"/><path d="M190 298 l0 20 l42 21 l0 -20 Z" fill="#FF74C6" fill-opacity="0.121"/><path d="M274 298 l0 20 l-42 21 l0 -20 Z" fill="#FF74C6" fill-opacity="0.070"/><path d="M316 262 l42 21 l-42 21 l-42 -21 Z" fill="#FF74C6" fill-opacity="0.333" stroke="#FF74C6" stroke-opacity=".26" stroke-width="1"/><path d="M274 283 l0 35 l42 21 l0 -35 Z" fill="#FF74C6" fill-opacity="0.183"/><path d="M358 283 l0 35 l-42 21 l0 -35 Z" fill="#FF74C6" fill-opacity="0.106"/><path d="M400 277 l42 21 l-42 21 l-42 -21 Z" fill="#FF74C6" fill-opacity="0.220" stroke="#FF74C6" stroke-opacity=".26" stroke-width="1"/><path d="M358 298 l0 20 l42 21 l0 -20 Z" fill="#FF74C6" fill-opacity="0.121"/><path d="M442 298 l0 20 l-42 21 l0 -20 Z" fill="#FF74C6" fill-opacity="0.070"/><path d="M484 267 l42 21 l-42 21 l-42 -21 Z" fill="#FF74C6" fill-opacity="0.295" stroke="#FF74C6" stroke-opacity=".26" stroke-width="1"/><path d="M442 288 l0 30 l42 21 l0 -30 Z" fill="#FF74C6" fill-opacity="0.162"/><path d="M526 288 l0 30 l-42 21 l0 -30 Z" fill="#FF74C6" fill-opacity="0.094"/><path d="M568 287 l42 21 l-42 21 l-42 -21 Z" fill="#FF74C6" fill-opacity="0.145" stroke="#FF74C6" stroke-opacity=".26" stroke-width="1"/><path d="M526 308 l0 10 l42 21 l0 -10 Z" fill="#FF74C6" fill-opacity="0.080"/><path d="M610 308 l0 10 l-42 21 l0 -10 Z" fill="#FF74C6" fill-opacity="0.046"/><path d="M652 282 l42 21 l-42 21 l-42 -21 Z" fill="#FF74C6" fill-opacity="0.182" stroke="#FF74C6" stroke-opacity=".26" stroke-width="1"/><path d="M610 303 l0 15 l42 21 l0 -15 Z" fill="#FF74C6" fill-opacity="0.100"/><path d="M694 303 l0 15 l-42 21 l0 -15 Z" fill="#FF74C6" fill-opacity="0.058"/><path d="M736 297 l42 21 l-42 21 l-42 -21 Z" fill="#FF74C6" fill-opacity="0.070" stroke="#FF74C6" stroke-opacity=".26" stroke-width="1"/><path d="M106 318 l42 21 l-42 21 l-42 -21 Z" fill="#FF74C6" fill-opacity="0.070" stroke="#FF74C6" stroke-opacity=".26" stroke-width="1"/><path d="M190 313 l42 21 l-42 21 l-42 -21 Z" fill="#FF74C6" fill-opacity="0.108" stroke="#FF74C6" stroke-opacity=".26" stroke-width="1"/><path d="M148 334 l0 5 l42 21 l0 -5 Z" fill="#FF74C6" fill-opacity="0.059"/><path d="M232 334 l0 5 l-42 21 l0 -5 Z" fill="#FF74C6" fill-opacity="0.034"/><path d="M274 283 l42 21 l-42 21 l-42 -21 Z" fill="#FF74C6" fill-opacity="0.333" stroke="#FF74C6" stroke-opacity=".26" stroke-width="1"/><path d="M232 304 l0 35 l42 21 l0 -35 Z" fill="#FF74C6" fill-opacity="0.183"/><path d="M316 304 l0 35 l-42 21 l0 -35 Z" fill="#FF74C6" fill-opacity="0.106"/><path d="M358 283 l42 21 l-42 21 l-42 -21 Z" fill="#FF74C6" fill-opacity="0.333" stroke="#FF74C6" stroke-opacity=".26" stroke-width="1"/><path d="M316 304 l0 35 l42 21 l0 -35 Z" fill="#FF74C6" fill-opacity="0.183"/><path d="M400 304 l0 35 l-42 21 l0 -35 Z" fill="#FF74C6" fill-opacity="0.106"/><path d="M442 313 l42 21 l-42 21 l-42 -21 Z" fill="#FF74C6" fill-opacity="0.108" stroke="#FF74C6" stroke-opacity=".26" stroke-width="1"/><path d="M400 334 l0 5 l42 21 l0 -5 Z" fill="#FF74C6" fill-opacity="0.059"/><path d="M484 334 l0 5 l-42 21 l0 -5 Z" fill="#FF74C6" fill-opacity="0.034"/><path d="M526 318 l42 21 l-42 21 l-42 -21 Z" fill="#FF74C6" fill-opacity="0.070" stroke="#FF74C6" stroke-opacity=".26" stroke-width="1"/><path d="M610 298 l42 21 l-42 21 l-42 -21 Z" fill="#FF74C6" fill-opacity="0.220" stroke="#FF74C6" stroke-opacity=".26" stroke-width="1"/><path d="M568 319 l0 20 l42 21 l0 -20 Z" fill="#FF74C6" fill-opacity="0.121"/><path d="M652 319 l0 20 l-42 21 l0 -20 Z" fill="#FF74C6" fill-opacity="0.070"/><path d="M694 308 l42 21 l-42 21 l-42 -21 Z" fill="#FF74C6" fill-opacity="0.145" stroke="#FF74C6" stroke-opacity=".26" stroke-width="1"/><path d="M652 329 l0 10 l42 21 l0 -10 Z" fill="#FF74C6" fill-opacity="0.080"/><path d="M736 329 l0 10 l-42 21 l0 -10 Z" fill="#FF74C6" fill-opacity="0.046"/><path d="M148 339 l42 21 l-42 21 l-42 -21 Z" fill="#FF74C6" fill-opacity="0.070" stroke="#FF74C6" stroke-opacity=".26" stroke-width="1"/><path d="M232 304 l42 21 l-42 21 l-42 -21 Z" fill="#FF74C6" fill-opacity="0.333" stroke="#FF74C6" stroke-opacity=".26" stroke-width="1"/><path d="M190 325 l0 35 l42 21 l0 -35 Z" fill="#FF74C6" fill-opacity="0.183"/><path d="M274 325 l0 35 l-42 21 l0 -35 Z" fill="#FF74C6" fill-opacity="0.106"/><path d="M316 339 l42 21 l-42 21 l-42 -21 Z" fill="#FF74C6" fill-opacity="0.070" stroke="#FF74C6" stroke-opacity=".26" stroke-width="1"/><path d="M400 304 l42 21 l-42 21 l-42 -21 Z" fill="#FF74C6" fill-opacity="0.333" stroke="#FF74C6" stroke-opacity=".26" stroke-width="1"/><path d="M358 325 l0 35 l42 21 l0 -35 Z" fill="#FF74C6" fill-opacity="0.183"/><path d="M442 325 l0 35 l-42 21 l0 -35 Z" fill="#FF74C6" fill-opacity="0.106"/><path d="M484 339 l42 21 l-42 21 l-42 -21 Z" fill="#FF74C6" fill-opacity="0.070" stroke="#FF74C6" stroke-opacity=".26" stroke-width="1"/><path d="M568 314 l42 21 l-42 21 l-42 -21 Z" fill="#FF74C6" fill-opacity="0.258" stroke="#FF74C6" stroke-opacity=".26" stroke-width="1"/><path d="M526 335 l0 25 l42 21 l0 -25 Z" fill="#FF74C6" fill-opacity="0.142"/><path d="M610 335 l0 25 l-42 21 l0 -25 Z" fill="#FF74C6" fill-opacity="0.082"/><path d="M652 309 l42 21 l-42 21 l-42 -21 Z" fill="#FF74C6" fill-opacity="0.295" stroke="#FF74C6" stroke-opacity=".26" stroke-width="1"/><path d="M610 330 l0 30 l42 21 l0 -30 Z" fill="#FF74C6" fill-opacity="0.162"/><path d="M694 330 l0 30 l-42 21 l0 -30 Z" fill="#FF74C6" fill-opacity="0.094"/><path d="M190 325 l42 21 l-42 21 l-42 -21 Z" fill="#FF74C6" fill-opacity="0.333" stroke="#FF74C6" stroke-opacity=".26" stroke-width="1"/><path d="M148 346 l0 35 l42 21 l0 -35 Z" fill="#FF74C6" fill-opacity="0.183"/><path d="M232 346 l0 35 l-42 21 l0 -35 Z" fill="#FF74C6" fill-opacity="0.106"/><path d="M274 350 l42 21 l-42 21 l-42 -21 Z" fill="#FF74C6" fill-opacity="0.145" stroke="#FF74C6" stroke-opacity=".26" stroke-width="1"/><path d="M232 371 l0 10 l42 21 l0 -10 Z" fill="#FF74C6" fill-opacity="0.080"/><path d="M316 371 l0 10 l-42 21 l0 -10 Z" fill="#FF74C6" fill-opacity="0.046"/><path d="M358 350 l42 21 l-42 21 l-42 -21 Z" fill="#FF74C6" fill-opacity="0.145" stroke="#FF74C6" stroke-opacity=".26" stroke-width="1"/><path d="M316 371 l0 10 l42 21 l0 -10 Z" fill="#FF74C6" fill-opacity="0.080"/><path d="M400 371 l0 10 l-42 21 l0 -10 Z" fill="#FF74C6" fill-opacity="0.046"/><path d="M442 325 l42 21 l-42 21 l-42 -21 Z" fill="#FF74C6" fill-opacity="0.333" stroke="#FF74C6" stroke-opacity=".26" stroke-width="1"/><path d="M400 346 l0 35 l42 21 l0 -35 Z" fill="#FF74C6" fill-opacity="0.183"/><path d="M484 346 l0 35 l-42 21 l0 -35 Z" fill="#FF74C6" fill-opacity="0.106"/><path d="M526 330 l42 21 l-42 21 l-42 -21 Z" fill="#FF74C6" fill-opacity="0.295" stroke="#FF74C6" stroke-opacity=".26" stroke-width="1"/><path d="M484 351 l0 30 l42 21 l0 -30 Z" fill="#FF74C6" fill-opacity="0.162"/><path d="M568 351 l0 30 l-42 21 l0 -30 Z" fill="#FF74C6" fill-opacity="0.094"/><path d="M610 360 l42 21 l-42 21 l-42 -21 Z" fill="#FF74C6" fill-opacity="0.070" stroke="#FF74C6" stroke-opacity=".26" stroke-width="1"/><path d="M232 356 l42 21 l-42 21 l-42 -21 Z" fill="#FF74C6" fill-opacity="0.258" stroke="#FF74C6" stroke-opacity=".26" stroke-width="1"/><path d="M190 377 l0 25 l42 21 l0 -25 Z" fill="#FF74C6" fill-opacity="0.142"/><path d="M274 377 l0 25 l-42 21 l0 -25 Z" fill="#FF74C6" fill-opacity="0.082"/><path d="M316 381 l42 21 l-42 21 l-42 -21 Z" fill="#FF74C6" fill-opacity="0.070" stroke="#FF74C6" stroke-opacity=".26" stroke-width="1"/><path d="M400 356 l42 21 l-42 21 l-42 -21 Z" fill="#FF74C6" fill-opacity="0.258" stroke="#FF74C6" stroke-opacity=".26" stroke-width="1"/><path d="M358 377 l0 25 l42 21 l0 -25 Z" fill="#FF74C6" fill-opacity="0.142"/><path d="M442 377 l0 25 l-42 21 l0 -25 Z" fill="#FF74C6" fill-opacity="0.082"/><path d="M484 346 l42 21 l-42 21 l-42 -21 Z" fill="#FF74C6" fill-opacity="0.333" stroke="#FF74C6" stroke-opacity=".26" stroke-width="1"/><path d="M442 367 l0 35 l42 21 l0 -35 Z" fill="#FF74C6" fill-opacity="0.183"/><path d="M526 367 l0 35 l-42 21 l0 -35 Z" fill="#FF74C6" fill-opacity="0.106"/><path d="M568 366 l42 21 l-42 21 l-42 -21 Z" fill="#FF74C6" fill-opacity="0.182" stroke="#FF74C6" stroke-opacity=".26" stroke-width="1"/><path d="M526 387 l0 15 l42 21 l0 -15 Z" fill="#FF74C6" fill-opacity="0.100"/><path d="M610 387 l0 15 l-42 21 l0 -15 Z" fill="#FF74C6" fill-opacity="0.058"/><path d="M274 387 l42 21 l-42 21 l-42 -21 Z" fill="#FF74C6" fill-opacity="0.182" stroke="#FF74C6" stroke-opacity=".26" stroke-width="1"/><path d="M232 408 l0 15 l42 21 l0 -15 Z" fill="#FF74C6" fill-opacity="0.100"/><path d="M316 408 l0 15 l-42 21 l0 -15 Z" fill="#FF74C6" fill-opacity="0.058"/><path d="M358 387 l42 21 l-42 21 l-42 -21 Z" fill="#FF74C6" fill-opacity="0.182" stroke="#FF74C6" stroke-opacity=".26" stroke-width="1"/><path d="M316 408 l0 15 l42 21 l0 -15 Z" fill="#FF74C6" fill-opacity="0.100"/><path d="M400 408 l0 15 l-42 21 l0 -15 Z" fill="#FF74C6" fill-opacity="0.058"/><path d="M442 402 l42 21 l-42 21 l-42 -21 Z" fill="#FF74C6" fill-opacity="0.070" stroke="#FF74C6" stroke-opacity=".26" stroke-width="1"/><path d="M526 367 l42 21 l-42 21 l-42 -21 Z" fill="#FF74C6" fill-opacity="0.333" stroke="#FF74C6" stroke-opacity=".26" stroke-width="1"/><path d="M484 388 l0 35 l42 21 l0 -35 Z" fill="#FF74C6" fill-opacity="0.183"/><path d="M568 388 l0 35 l-42 21 l0 -35 Z" fill="#FF74C6" fill-opacity="0.106"/><path d="M316 418 l42 21 l-42 21 l-42 -21 Z" fill="#FF74C6" fill-opacity="0.108" stroke="#FF74C6" stroke-opacity=".26" stroke-width="1"/><path d="M274 439 l0 5 l42 21 l0 -5 Z" fill="#FF74C6" fill-opacity="0.059"/><path d="M358 439 l0 5 l-42 21 l0 -5 Z" fill="#FF74C6" fill-opacity="0.034"/><path d="M400 423 l42 21 l-42 21 l-42 -21 Z" fill="#FF74C6" fill-opacity="0.070" stroke="#FF74C6" stroke-opacity=".26" stroke-width="1"/><path d="M484 423 l42 21 l-42 21 l-42 -21 Z" fill="#FF74C6" fill-opacity="0.070" stroke="#FF74C6" stroke-opacity=".26" stroke-width="1"/><path d="M358 444 l42 21 l-42 21 l-42 -21 Z" fill="#FF74C6" fill-opacity="0.070" stroke="#FF74C6" stroke-opacity=".26" stroke-width="1"/><path d="M442 424 l42 21 l-42 21 l-42 -21 Z" fill="#FF74C6" fill-opacity="0.220" stroke="#FF74C6" stroke-opacity=".26" stroke-width="1"/><path d="M400 445 l0 20 l42 21 l0 -20 Z" fill="#FF74C6" fill-opacity="0.121"/><path d="M484 445 l0 20 l-42 21 l0 -20 Z" fill="#FF74C6" fill-opacity="0.070"/><path d="M400 465 l42 21 l-42 21 l-42 -21 Z" fill="#FF74C6" fill-opacity="0.070" stroke="#FF74C6" stroke-opacity=".26" stroke-width="1"/><circle cx="232" cy="298" r="6" fill="#FF74C6" fill-opacity=".85"/><circle cx="232" cy="298" r="17" fill="none" stroke="#FF74C6" stroke-opacity=".40" stroke-width="1.4"/><circle cx="568" cy="308" r="6" fill="#FF74C6" fill-opacity=".85"/><circle cx="568" cy="308" r="17" fill="none" stroke="#FF74C6" stroke-opacity=".40" stroke-width="1.4"/><circle cx="400" cy="298" r="6" fill="#FF74C6" fill-opacity=".85"/><circle cx="400" cy="298" r="17" fill="none" stroke="#FF74C6" stroke-opacity=".40" stroke-width="1.4"/><rect width="800" height="450" fill="url(#vig)"/></svg>